<?xml version="1.0" encoding="utf-8"?>
<!-- Generator: Adobe Illustrator 22.1.0, SVG Export Plug-In . SVG Version: 6.00 Build 0)  -->
<svg version="1.1" id="Layer_1" xmlns="http://www.w3.org/2000/svg" xmlns:xlink="http://www.w3.org/1999/xlink" x="0px" y="0px"
	 viewBox="0 0 256 256.1" style="enable-background:new 0 0 256 256.1;" xml:space="preserve">
<style type="text/css">
	.st0{fill:url(#SVGID_1_);}
	.st1{opacity:0.35;fill:url(#SVGID_2_);enable-background:new    ;}
	.st2{fill:url(#SVGID_3_);}
	.st3{opacity:0.41;fill:url(#SVGID_4_);enable-background:new    ;}
	.st4{fill:url(#SVGID_5_);}
	.st5{fill:url(#SVGID_6_);}
</style>
<linearGradient id="SVGID_1_" gradientUnits="userSpaceOnUse" x1="63.35" y1="-54.05" x2="241.6433" y2="-54.05" gradientTransform="matrix(1 0 0 1 -4.63 231.08)">
	<stop  offset="0" style="stop-color:#0C59A4"/>
	<stop  offset="1" style="stop-color:#114A8B"/>
</linearGradient>
<path class="st0" d="M231.1,190.5c-3.4,1.8-6.9,3.4-10.5,4.7c-11.5,4.3-23.6,6.5-35.9,6.5c-47.3,0-88.5-32.6-88.5-74.3
	c0.1-11.4,6.4-21.9,16.4-27.3c-42.8,1.8-53.8,46.4-53.8,72.5c0,73.9,68.1,81.4,82.8,81.4c7.9,0,19.8-2.3,27-4.6l1.3-0.4
	c27.6-9.5,51-28.1,66.6-52.8c1.2-1.9,0.6-4.3-1.2-5.5C233.9,189.9,232.4,189.8,231.1,190.5z"/>
<radialGradient id="SVGID_2_" cx="161.85" cy="-45.2258" r="95.38" gradientTransform="matrix(1 0 0 0.95 -4.63 221.42)" gradientUnits="userSpaceOnUse">
	<stop  offset="0.72" style="stop-color:#000000;stop-opacity:0"/>
	<stop  offset="0.95" style="stop-color:#000000;stop-opacity:0.53"/>
	<stop  offset="1" style="stop-color:#000000"/>
</radialGradient>
<path class="st1" d="M231.1,190.5c-3.4,1.8-6.9,3.4-10.5,4.7c-11.5,4.3-23.6,6.5-35.9,6.5c-47.3,0-88.5-32.6-88.5-74.3
	c0.1-11.4,6.4-21.9,16.4-27.3c-42.8,1.8-53.8,46.4-53.8,72.5c0,73.9,68.1,81.4,82.8,81.4c7.9,0,19.8-2.3,27-4.6l1.3-0.4
	c27.6-9.5,51-28.1,66.6-52.8c1.2-1.9,0.6-4.3-1.2-5.5C233.9,189.9,232.4,189.8,231.1,190.5z"/>
<linearGradient id="SVGID_3_" gradientUnits="userSpaceOnUse" x1="157.4282" y1="-131.3366" x2="46.0381" y2="-10.0066" gradientTransform="matrix(1 0 0 1 -4.63 231.08)">
	<stop  offset="0" style="stop-color:#1B9DE2"/>
	<stop  offset="0.16" style="stop-color:#1595DF"/>
	<stop  offset="0.67" style="stop-color:#0680D7"/>
	<stop  offset="1" style="stop-color:#0078D4"/>
</linearGradient>
<path class="st2" d="M105.7,241.4c-8.9-5.5-16.6-12.8-22.7-21.3c-26.3-36-18.4-86.5,17.6-112.8c3.8-2.7,7.7-5.2,11.9-7.2
	c3.1-1.5,8.4-4.1,15.5-4c10.1,0.1,19.6,4.9,25.7,13c4,5.4,6.3,11.9,6.4,18.7c0-0.2,24.5-79.6-80-79.6c-43.9,0-80,41.7-80,78.2
	c-0.2,19.3,4,38.5,12.1,56c27.6,58.8,94.8,87.6,156.4,67.1C147.5,256.1,124.6,253.2,105.7,241.4L105.7,241.4z"/>
<radialGradient id="SVGID_4_" cx="-167.233" cy="-13.4344" r="143.24" gradientTransform="matrix(0.15 -0.99 0.8 0.12 106.427 35.0598)" gradientUnits="userSpaceOnUse">
	<stop  offset="0.76" style="stop-color:#000000;stop-opacity:0"/>
	<stop  offset="0.95" style="stop-color:#000000;stop-opacity:0.5"/>
	<stop  offset="1" style="stop-color:#000000"/>
</radialGradient>
<path class="st3" d="M105.7,241.4c-8.9-5.5-16.6-12.8-22.7-21.3c-26.3-36-18.4-86.5,17.6-112.8c3.8-2.7,7.7-5.2,11.9-7.2
	c3.1-1.5,8.4-4.1,15.5-4c10.1,0.1,19.6,4.9,25.7,13c4,5.4,6.3,11.9,6.4,18.7c0-0.2,24.5-79.6-80-79.6c-43.9,0-80,41.7-80,78.2
	c-0.2,19.3,4,38.5,12.1,56c27.6,58.8,94.8,87.6,156.4,67.1C147.5,256.1,124.6,253.2,105.7,241.4L105.7,241.4z"/>
<radialGradient id="SVGID_5_" cx="59.9702" cy="-387.958" r="202.43" gradientTransform="matrix(-4.000000e-02 1 -2.13 -8.000000e-02 -798.0892 -43.63)" gradientUnits="userSpaceOnUse">
	<stop  offset="0" style="stop-color:#35C1F1"/>
	<stop  offset="0.11" style="stop-color:#34C1ED"/>
	<stop  offset="0.23" style="stop-color:#2FC2DF"/>
	<stop  offset="0.31" style="stop-color:#2BC3D2"/>
	<stop  offset="0.67" style="stop-color:#36C752"/>
</radialGradient>
<path class="st4" d="M152.3,148.9c-0.8,1.1-3.3,2.5-3.3,5.7c0,2.6,1.7,5.1,4.7,7.2c14.4,10,41.5,8.7,41.6,8.7
	c10.7,0,21.1-2.9,30.3-8.4c18.8-11,30.4-31.1,30.4-52.9c0.3-22.4-8-37.3-11.3-43.9C223.5,23.8,177.7,0,128,0C58,0,1,56.2,0,126.2
	c0.5-36.5,36.8-66.1,80-66.1c3.5,0,23.5,0.3,42,10.1c16.3,8.6,24.9,18.9,30.9,29.2c6.2,10.7,7.3,24.1,7.3,29.5
	S157.4,142.3,152.3,148.9z"/>
<radialGradient id="SVGID_6_" cx="307.3378" cy="-383.7349" r="97.34" gradientTransform="matrix(0.28 0.96 -0.78 0.23 -145.2956 -129.3792)" gradientUnits="userSpaceOnUse">
	<stop  offset="0" style="stop-color:#66EB6E"/>
	<stop  offset="1" style="stop-color:#66EB6E;stop-opacity:0"/>
</radialGradient>
<path class="st5" d="M152.3,148.9c-0.8,1.1-3.3,2.5-3.3,5.7c0,2.6,1.7,5.1,4.7,7.2c14.4,10,41.5,8.7,41.6,8.7
	c10.7,0,21.1-2.9,30.3-8.4c18.8-11,30.4-31.1,30.4-52.9c0.3-22.4-8-37.3-11.3-43.9C223.5,23.8,177.7,0,128,0C58,0,1,56.2,0,126.2
	c0.5-36.5,36.8-66.1,80-66.1c3.5,0,23.5,0.3,42,10.1c16.3,8.6,24.9,18.9,30.9,29.2c6.2,10.7,7.3,24.1,7.3,29.5
	S157.4,142.3,152.3,148.9z"/>
</svg>
